<svg width="128" height="126" viewBox="0 0 128 126" fill="none" xmlns="http://www.w3.org/2000/svg">
    <g clip-path="url(#clip0_1_371)">
        <path d="M102.255 99.2073C101.168 100.995 99.4739 102.183 97.8917 103.444C90.4446 109.404 82.0545 112.915 72.386 112.867C65.7059 112.835 59.8169 110.473 54.4713 106.564C49.7809 103.133 46.4488 98.577 43.4763 93.694C41.0472 89.7047 38.4503 85.835 34.7587 82.8589C26.0331 75.8137 14.311 77.569 8.0624 86.8722C7.32728 87.9653 6.69603 89.1302 6.00085 90.2951C5.93693 90.2552 5.80109 90.2233 5.76913 90.1515C1.82181 80.585 -0.455482 70.6993 0.0798824 60.3031C0.759076 47.0105 5.28171 35.1461 13.5998 24.7259C18.7457 18.2791 24.8824 13.0291 32.002 8.86422C39.7927 4.30039 48.1029 1.30039 57.0922 0.366883C66.0975 -0.566628 74.951 0.255181 83.6047 3.06369C97.684 7.6355 108.911 16.0531 117.564 27.9812C119.123 30.1275 120.609 32.3217 121.879 34.6515C122.942 36.6062 121.839 38.8483 119.682 39.2951C118.363 39.5664 116.989 38.8084 116.198 37.3004C114.408 33.9015 112.291 30.7339 109.822 27.7898C101.551 17.9041 91.2037 11.2578 78.7305 7.93071C68.4627 5.18603 58.2188 5.34561 48.0229 8.24986C42.7252 9.75784 37.7232 12.0238 33.0887 14.9839C30.7395 16.4839 28.5341 18.2392 26.4166 20.0823C18.7138 26.7525 12.8088 34.6914 9.28495 44.3057C8.3181 46.9387 7.7268 49.6754 7.0556 52.3961C6.11272 56.2259 5.98487 60.1116 5.9609 64.0132C5.9609 64.1807 5.873 64.3882 6.16066 64.5956C13.0804 55.4999 21.9339 48.8536 32.6252 43.9945C29.9165 49.3243 29.1174 54.6781 29.6448 60.2312C30.1642 65.6887 31.7303 70.811 34.8786 75.3828C34.0076 72.9972 33.3763 70.5477 32.9608 68.0504C30.6436 54.0956 34.1594 41.96 44.2594 31.8589C44.8907 31.2286 45.1703 31.4121 45.6338 32.0105C48.1348 35.2259 51.363 36.6302 55.4302 35.7685C56.9643 35.4414 58.4665 34.4201 59.5772 33.0637C57.3239 33.3509 55.1025 33.5025 52.9291 32.9201C46.4408 31.1727 43.4124 23.4812 46.8244 17.5451C48.9498 13.8509 52.3538 12.0717 56.3571 11.2179C57.0922 11.0584 57.8353 10.9866 58.6823 11.0504C57.7953 11.7046 56.9084 12.3509 56.0374 13.0211C54.1357 14.4733 52.8572 16.3562 52.2739 18.6781C51.8824 20.2499 52.0102 21.7578 53.009 23.1142C53.7282 24.0956 54.6471 24.6142 55.9016 24.6062C59.769 24.5823 63.6444 24.6302 67.5118 24.5823C68.4227 24.5743 69.1499 24.7419 69.6692 25.5078C70.676 26.9919 72.1623 27.9972 73.4088 29.2419C76.9726 32.8084 80.6003 36.311 84.228 39.8137C84.6035 40.1807 84.6674 40.3882 84.3718 40.827C83.1812 42.6222 82.0146 44.4414 80.8719 46.2765C80.5284 46.827 80.1288 46.9945 79.4816 47.0025C76.605 47.0424 73.7045 46.8031 70.8598 47.4573C65.3863 48.7259 60.9116 51.7179 57.22 55.819C50.9715 62.7605 47.5835 70.9227 47.7273 80.3137C47.8711 89.5531 51.1632 97.4679 58.4985 103.396C62.1981 106.388 66.4571 108.183 71.2194 108.718C72.1063 108.822 72.6577 108.63 73.0972 107.753C75.758 102.463 76.0776 97.1887 73.1451 91.8908C72.9294 91.4999 72.6417 91.2126 73.3928 91.0531C81.1516 89.4094 87.4801 82.2924 87.3363 72.4626C87.2723 68.2578 85.7701 64.7312 82.8296 61.7711C82.7257 61.6674 82.6378 61.5477 82.4541 61.3243C84.7713 60.8057 86.9847 60.7499 89.246 60.9733C93.4969 61.3961 97.2924 62.936 100.489 65.7126C104.867 69.5265 106.018 74.5531 105.115 80.0584C104.044 86.6169 100.744 92.0664 96.2617 96.8935C92.8657 100.556 88.9743 103.556 84.6195 105.989C87.1365 105.383 89.4857 104.393 91.7071 103.085C95.0551 101.106 98.0515 98.6887 100.68 95.8243C100.728 96.2711 100.601 96.6382 100.233 96.9094C99.5857 97.3961 99.4898 98.0743 99.5378 98.8243C99.5937 99.8855 99.9533 100.109 100.856 99.5743C101.296 99.319 101.719 99.1195 102.239 99.1993L102.255 99.2073ZM65.7859 32.936C67.328 35.0983 69.3097 36.1674 71.9385 35.1062C70.5961 32.6089 68.191 32.6807 65.7859 32.936Z" fill="white"/>
        <path d="M127.984 62.3378C128.016 74.2181 125.467 85.4681 119.13 95.6569C111.699 107.609 101.415 116.242 88.3509 121.564C82.8055 123.822 77.0284 125.146 71.1074 125.96C70.1725 126.088 69.2935 125.976 68.4865 125.465C67.184 124.636 66.6007 123.176 66.9843 121.731C67.3279 120.431 68.5105 119.569 70.1805 119.457C75.3903 119.106 80.4723 118.133 85.3784 116.354C93.7685 113.306 100.904 108.391 106.969 101.864C115.039 93.1915 119.778 82.9867 121.448 71.2739C122.239 65.7447 122.151 60.2553 121.488 54.742C121.264 52.891 122.207 51.5426 123.997 51.1436C125.539 50.7926 126.993 51.7181 127.544 53.4096C127.888 54.4707 127.896 55.5798 127.936 56.6649C128.016 58.5558 127.96 60.4468 127.96 62.3457L127.984 62.3378Z" fill="white"/>
        <path d="M83.9563 73.4761C83.8364 79.7394 79.7852 85.3724 74.1919 87.008C71.4351 87.8139 68.7104 87.75 66.0975 86.4814C65.2665 86.0745 64.4754 86.2261 63.6684 86.3059C62.27 86.4495 60.8797 86.5931 59.4973 86.8245C58.8581 86.9282 58.5145 86.7048 58.1709 86.2261C56.7646 84.2953 55.3582 82.3644 53.904 80.4814C53.4725 79.9149 53.5284 79.6197 54.0797 79.2208C56.0694 77.7766 58.0191 76.2687 60.0167 74.8245C60.8157 74.25 61.3271 73.5479 61.2153 72.5745C60.9276 70.0851 62.1022 68.5692 64.1558 67.2846C66.3931 65.8804 68.3668 64.0612 70.8039 62.9522C71.4911 62.641 71.2993 62.0825 71.4032 61.6277C71.9465 59.2899 73.8323 57.9894 75.9018 58.6915C78.0353 59.4096 79.2738 60.9655 79.6893 63.1596C79.7772 63.6224 79.8651 63.9974 80.2407 64.3325C82.9814 66.766 84.0522 69.8937 83.9563 73.4841V73.4761ZM69.845 72.2314C66.8726 71.8165 66.529 71.9841 65.7379 74.0745C65.5142 74.6729 65.5701 74.8006 66.2493 74.8644C68.2789 75.0639 69.0859 73.7314 69.845 72.2314Z" fill="white"/>
        <path d="M102.518 99.2873C102.918 98.8006 101.376 100.612 100.936 100.867C100.025 101.402 98.9305 101.178 98.507 100.34C98.0835 99.5027 98.5709 97.9628 99.4499 97.1171C100.017 96.5745 100.065 96.4149 100.696 95.8245C102.398 93.6144 104.108 91.4123 105.411 88.9149C107.768 84.399 108.863 79.5878 108.599 74.5213C108.375 70.2447 106.993 66.3112 104.388 62.8644C104.26 62.6889 104.156 62.4894 104.044 62.3059C104.156 62.2341 104.22 62.1543 104.268 62.1623C105.509 62.3431 106.133 61.8059 106.138 60.5506C106.138 57.5186 106.138 54.4947 106.138 51.4628C106.138 48.5107 108.176 46.2846 111.044 46.125C113.809 45.9734 116.502 48.0718 116.518 50.9123C116.558 59.258 117.237 67.6516 115.271 75.9016C114.584 78.7819 113.705 81.5984 112.49 84.2952C110.9 87.8298 109.07 91.2607 106.633 94.2846C105.267 95.9841 102.119 99.766 102.526 99.2793L102.518 99.2873Z" fill="#D3AE37"/>
        <path d="M100.92 58.5719C98.6908 57.3272 96.5413 56.3139 94.1681 55.907C93.2732 55.7554 92.3703 55.6038 91.4674 55.5559C90.7482 55.516 90.5005 55.2766 90.5085 54.5346C90.5404 48.2873 90.5325 42.032 90.5325 35.7846C90.5325 33.016 90.5005 30.2554 90.5484 27.4867C90.5964 25.0054 92.1146 23.1623 94.5677 22.4681C96.5573 21.9096 98.8346 22.8112 100.081 24.7022C100.744 25.7075 101.016 26.8405 101.008 28.0373C101 38.0027 100.984 47.9601 100.968 57.9256C100.968 58.0772 100.944 58.2288 100.92 58.5719Z" fill="#D3AE37"/>
        <path d="M26.4084 100.859C26.4084 104.569 26.4084 108.279 26.4084 111.989C26.4084 112.277 26.5443 112.668 26.2646 112.843C25.905 113.074 25.6493 112.676 25.4016 112.5C22.0376 110.13 19.1291 107.266 16.3164 104.282C16.0288 103.971 15.9648 103.652 15.9648 103.253C15.9808 98.9761 15.9409 94.6915 16.0048 90.4149C16.0368 88.2686 16.9637 86.5293 18.9054 85.4761C20.7432 84.4787 22.557 84.6862 24.283 85.8112C25.7772 86.7846 26.4484 88.1968 26.4484 89.9442C26.4484 93.5825 26.4484 97.2128 26.4484 100.851H26.4164L26.4084 100.859Z" fill="#D3AE37"/>
        <path d="M41.7506 112.955C41.7506 115.532 41.7266 118.101 41.7586 120.678C41.7666 121.556 41.5269 121.803 40.6559 121.46C37.6914 120.287 34.7829 119.027 32.114 117.255C31.6825 116.968 31.4828 116.713 31.4908 116.186C31.5068 112.819 31.4508 109.444 31.4908 106.077C31.5387 102.184 34.8308 99.6862 38.3067 100.827C40.2644 101.473 41.7026 103.38 41.7266 105.455C41.7506 107.952 41.7266 110.449 41.7266 112.947H41.7426L41.7506 112.955Z" fill="#D3AE37"/>
        <path d="M57.4676 120.303C57.4676 121.795 57.4436 123.231 57.4756 124.668C57.4835 125.226 57.2998 125.402 56.7484 125.33C53.7759 124.971 50.8195 124.524 47.9269 123.742C47.3995 123.598 46.976 123.415 47 122.689C47.0719 120.606 46.992 118.524 47.1039 116.45C47.2557 113.713 49.0695 111.886 51.7623 111.606C54.2634 111.343 56.5966 112.875 57.2678 115.38C57.6993 117 57.3477 118.7 57.4596 120.303H57.4676Z" fill="#D3AE37"/>
        <path d="M73.8005 25.5478C75.023 25.5718 76.0698 25.5877 77.0686 25.1409C79.5936 24.0159 80.8081 21.5984 80.3607 18.5824C80.097 16.7553 79.3139 15.1356 78.387 13.5718C78.7466 13.3244 78.9783 13.6037 79.218 13.7473C84.1961 16.6914 86.1139 21.9095 84.1082 26.9361C83.3411 28.867 81.9588 30.1835 80.2009 31.1888C79.8093 31.4122 79.5856 31.4202 79.25 31.0771C77.4921 29.2659 75.7022 27.4787 73.7925 25.5558L73.8005 25.5478Z" fill="white"/>
        <path d="M67.4718 18.032C66.7048 16.0772 65.7779 14.7048 63.8042 14.274C65.4742 13.3883 67.0723 12.5665 67.328 10.3804C68.1351 12.0719 69.1578 13.4522 71.2114 14.1543C69.3496 14.9761 68.1271 16.0293 67.4718 18.032Z" fill="#D3AE37"/>
        <path d="M31.1071 25.1171C31.6984 26.6969 32.6812 27.782 34.1595 28.4203C34.6389 28.6277 34.6069 28.9469 34.1674 29.1224C32.6413 29.7208 31.7623 30.8937 31.163 32.5852C30.5158 30.8777 29.7087 29.625 28.0707 29.1144C27.5913 28.9628 27.6791 28.5958 28.1026 28.4123C29.5889 27.782 30.5957 26.7367 31.1071 25.1171Z" fill="#D3AE37"/>
        <path d="M19.7444 46.6357C19.1212 44.5612 18.0025 43.3564 16.1807 42.7341C17.9466 41.9921 19.1691 40.883 19.7604 38.7048C20.3437 40.6038 21.1987 41.8165 22.7968 42.375C23.1564 42.5027 23.1804 42.8618 22.7569 43.0293C21.2147 43.6197 20.4236 44.8724 19.7444 46.6357Z" fill="#D3AE37"/>
        <path d="M110.013 39.5027C110.037 40.3963 109.294 41.1862 108.415 41.2101C107.504 41.234 106.809 40.5239 106.801 39.5665C106.801 38.6011 107.48 37.8351 108.343 37.8431C109.222 37.8511 109.989 38.617 110.013 39.5027Z" fill="#D3AE37"/>
        <path d="M35.8215 94.0053C35.8055 94.9308 35.1423 95.617 34.2714 95.609C33.3924 95.601 32.7612 94.843 32.8011 93.8457C32.8411 92.8803 33.4643 92.2579 34.3433 92.2978C35.1743 92.3377 35.8295 93.0957 35.8215 94.0053Z" fill="#D3AE37"/>
    </g>
    <defs>
        <clipPath id="clip0_1_371">
            <rect width="128" height="126" fill="white"/>
        </clipPath>
    </defs>
</svg>
